<svg width="113" height="24" viewBox="0 0 113 24" fill="none" xmlns="http://www.w3.org/2000/svg">
<g clip-path="url(#clip0_301_7729)">
<path d="M11 7.63647V11.2733V12.727V16.3638H14.0001V12.727V11.2733V7.63647H11Z" fill="black"/>
<path d="M2.00002 12.6821C2.82845 12.6821 3.50003 12.0106 3.50003 11.1821C3.50003 10.3537 2.82845 9.68213 2.00002 9.68213C1.17158 9.68213 0.5 10.3537 0.5 11.1821C0.5 12.0106 1.17158 12.6821 2.00002 12.6821Z" fill="black"/>
<path d="M2.00002 14.3179C2.82845 14.3179 3.50003 13.6463 3.50003 12.8179C3.50003 11.9894 2.82845 11.3179 2.00002 11.3179C1.17158 11.3179 0.5 11.9894 0.5 12.8179C0.5 13.6463 1.17158 14.3179 2.00002 14.3179Z" fill="black"/>
<path d="M3.50003 11.1821H0.5V12.8185H3.50003V11.1821Z" fill="black"/>
<path d="M23 14.3179C23.8285 14.3179 24.5 13.6463 24.5 12.8179C24.5 11.9894 23.8285 11.3179 23 11.3179C22.1716 11.3179 21.5 11.9894 21.5 12.8179C21.5 13.6463 22.1716 14.3179 23 14.3179Z" fill="black"/>
<path d="M23 12.6821C23.8285 12.6821 24.5 12.0106 24.5 11.1821C24.5 10.3537 23.8285 9.68213 23 9.68213C22.1716 9.68213 21.5 10.3537 21.5 11.1821C21.5 12.0106 22.1716 12.6821 23 12.6821Z" fill="black"/>
<path d="M21.5 12.8185H24.5V11.1821H21.5V12.8185Z" fill="black"/>
<path d="M7.18165 17.5911C8.01006 17.5911 8.68165 16.9195 8.68165 16.0911C8.68165 15.2626 8.01006 14.5911 7.18165 14.5911C6.35321 14.5911 5.68164 15.2626 5.68164 16.0911C5.68164 16.9195 6.35321 17.5911 7.18165 17.5911Z" fill="black"/>
<path d="M7.18165 19.2276C8.01006 19.2276 8.68165 18.5561 8.68165 17.7276C8.68165 16.8992 8.01006 16.2275 7.18165 16.2275C6.35321 16.2275 5.68164 16.8992 5.68164 17.7276C5.68164 18.5561 6.35321 19.2276 7.18165 19.2276Z" fill="black"/>
<path d="M8.68165 16.0911H5.68164V17.7274H8.68165V16.0911Z" fill="black"/>
<path d="M7.18165 7.77245C8.01006 7.77245 8.68165 7.10088 8.68165 6.27247C8.68165 5.44404 8.01006 4.77246 7.18165 4.77246C6.35321 4.77246 5.68164 5.44404 5.68164 6.27247C5.68164 7.10088 6.35321 7.77245 7.18165 7.77245Z" fill="black"/>
<path d="M7.18165 13.0903C8.01006 13.0903 8.68165 12.4188 8.68165 11.5903C8.68165 10.7619 8.01006 10.0903 7.18165 10.0903C6.35321 10.0903 5.68164 10.7619 5.68164 11.5903C5.68164 12.4188 6.35321 13.0903 7.18165 13.0903Z" fill="black"/>
<path d="M8.68165 6.27246H5.68164V11.6248H8.68165V6.27246Z" fill="black"/>
<path d="M17.8184 9.40968C18.6468 9.40968 19.3184 8.73811 19.3184 7.90968C19.3184 7.08124 18.6468 6.40967 17.8184 6.40967C16.99 6.40967 16.3184 7.08124 16.3184 7.90968C16.3184 8.73811 16.99 9.40968 17.8184 9.40968Z" fill="black"/>
<path d="M17.8184 7.77245C18.6468 7.77245 19.3184 7.10088 19.3184 6.27247C19.3184 5.44404 18.6468 4.77246 17.8184 4.77246C16.99 4.77246 16.3184 5.44404 16.3184 6.27247C16.3184 7.10088 16.99 7.77245 17.8184 7.77245Z" fill="black"/>
<path d="M16.3179 7.90882H19.3179V6.27246H16.3179V7.90882Z" fill="black"/>
<path d="M12.5 4.63649C13.3285 4.63649 14.0001 3.96492 14.0001 3.13648C14.0001 2.30805 13.3285 1.63647 12.5 1.63647C11.6716 1.63647 11 2.30805 11 3.13648C11 3.96492 11.6716 4.63649 12.5 4.63649Z" fill="black"/>
<path d="M12.5 3.00001C13.3285 3.00001 14.0001 2.32844 14.0001 1.50001C14.0001 0.671577 13.3285 0 12.5 0C11.6716 0 11 0.671577 11 1.50001C11 2.32844 11.6716 3.00001 12.5 3.00001Z" fill="black"/>
<path d="M11 3.13638H14.0001V1.5H11V3.13638Z" fill="black"/>
<path d="M12.5 24C13.3285 24 14.0001 23.3284 14.0001 22.5C14.0001 21.6716 13.3285 21 12.5 21C11.6716 21 11 21.6716 11 22.5C11 23.3284 11.6716 24 12.5 24Z" fill="black"/>
<path d="M12.5 22.364C13.3285 22.364 14.0001 21.6925 14.0001 20.864C14.0001 20.0356 13.3285 19.364 12.5 19.364C11.6716 19.364 11 20.0356 11 20.864C11 21.6925 11.6716 22.364 12.5 22.364Z" fill="black"/>
<path d="M11 22.5004H14.0001V20.864H11V22.5004Z" fill="black"/>
<path d="M17.8184 19.2276C18.6468 19.2276 19.3184 18.5561 19.3184 17.7276C19.3184 16.8992 18.6468 16.2275 17.8184 16.2275C16.99 16.2275 16.3184 16.8992 16.3184 17.7276C16.3184 18.5561 16.99 19.2276 17.8184 19.2276Z" fill="black"/>
<path d="M17.8184 13.9097C18.6468 13.9097 19.3184 13.2381 19.3184 12.4097C19.3184 11.5812 18.6468 10.9097 17.8184 10.9097C16.99 10.9097 16.3184 11.5812 16.3184 12.4097C16.3184 13.2381 16.99 13.9097 17.8184 13.9097Z" fill="black"/>
<path d="M16.3179 17.7272H19.3179V12.4089H16.3179V17.7272Z" fill="black"/>
<path d="M12.5 9.13652C13.3285 9.13652 14.0001 8.46488 14.0001 7.63651C14.0001 6.80808 13.3285 6.13647 12.5 6.13647C11.6716 6.13647 11 6.80808 11 7.63651C11 8.46488 11.6716 9.13652 12.5 9.13652Z" fill="black"/>
<path d="M12.5 17.864C13.3285 17.864 14.0001 17.1925 14.0001 16.364C14.0001 15.5356 13.3285 14.864 12.5 14.864C11.6716 14.864 11 15.5356 11 16.364C11 17.1925 11.6716 17.864 12.5 17.864Z" fill="black"/>
</g>
<g clip-path="url(#clip1_301_7729)">
<path d="M56.5 0C54.1266 0 51.8065 0.70378 49.8331 2.02233C47.8598 3.34094 46.3217 5.21511 45.4134 7.40778C44.5052 9.60052 44.2676 12.0133 44.7306 14.3411C45.1936 16.6689 46.3365 18.807 48.0147 20.4853C49.693 22.1635 51.8312 23.3064 54.1589 23.7694C56.4867 24.2324 58.8995 23.9948 61.0922 23.0865C63.2849 22.1783 65.1591 20.6402 66.4777 18.6668C67.7962 16.6935 68.5 14.3734 68.5 12C68.5 8.81738 67.2357 5.76516 64.9853 3.51474C62.7348 1.26425 59.6826 0 56.5 0ZM62.0068 17.3057C61.9557 17.3905 61.8883 17.4643 61.8085 17.5228C61.7286 17.5813 61.638 17.6234 61.5417 17.6465C61.4455 17.6697 61.3456 17.6735 61.2479 17.6577C61.1501 17.6419 61.0565 17.6069 60.9725 17.5547C58.1569 15.8308 54.6133 15.4477 50.4378 16.3959C50.3428 16.4185 50.2442 16.4221 50.1478 16.4064C50.0515 16.3906 49.9591 16.3559 49.8763 16.3043C49.7935 16.2526 49.7217 16.185 49.6652 16.1054C49.6086 16.0257 49.5685 15.9357 49.5471 15.8404C49.5243 15.7448 49.5207 15.6457 49.5362 15.5486C49.5519 15.4516 49.5864 15.3586 49.638 15.275C49.6896 15.1914 49.7572 15.1188 49.8369 15.0613C49.9166 15.0039 50.0069 14.9627 50.1025 14.9401C54.6708 13.8962 58.5974 14.3464 61.7578 16.2809C61.9264 16.384 62.0473 16.5498 62.094 16.7418C62.1407 16.9339 62.1093 17.1367 62.0068 17.3057ZM63.4721 14.0399C63.3383 14.2458 63.1304 14.3923 62.8916 14.4494C62.6528 14.5064 62.4012 14.4695 62.1888 14.3464C58.5474 12.3151 54.2486 11.8122 50.2366 12.9481C50.1118 13.0177 49.973 13.0585 49.8303 13.0674C49.6876 13.0764 49.5448 13.0533 49.4122 12.9998C49.2797 12.9464 49.1608 12.864 49.0642 12.7586C48.9677 12.6532 48.8959 12.5275 48.8542 12.3909C48.8126 12.2541 48.802 12.1098 48.8234 11.9685C48.8448 11.8271 48.8975 11.6924 48.9777 11.5741C49.0579 11.4558 49.1636 11.357 49.2869 11.2848C49.4104 11.2127 49.5483 11.1691 49.6907 11.1572C51.93 10.5126 54.2756 10.322 56.5896 10.5967C58.9036 10.8713 61.1394 11.6057 63.1656 12.7566C63.3715 12.8904 63.518 13.0982 63.5751 13.337C63.6321 13.5759 63.5952 13.8275 63.4721 14.0399ZM63.5966 10.6401C59.7658 8.34155 53.3588 8.13085 49.662 9.25138C49.3776 9.33779 49.0704 9.30758 48.8082 9.16744C48.546 9.02737 48.3501 8.78886 48.2638 8.50436C48.1774 8.21994 48.2076 7.91276 48.3477 7.65052C48.4877 7.38834 48.7263 7.19251 49.0108 7.10617C53.2534 5.82283 60.2925 6.07184 64.7459 8.70548C64.9748 8.86935 65.1337 9.11336 65.1909 9.38905C65.2481 9.66468 65.1994 9.95178 65.0546 10.1933C64.9097 10.4347 64.6793 10.6127 64.4092 10.6919C64.139 10.7712 63.8489 10.7458 63.5966 10.6209V10.6401Z" fill="black"/>
</g>
<path fill-rule="evenodd" clip-rule="evenodd" d="M92.9583 4.73508C91.473 4.80867 90.2798 5.97175 90.1834 7.45583C90.091 8.87769 90 10.6272 90 12C90 13.3728 90.091 15.1223 90.1834 16.5442C90.2798 18.0283 91.473 19.1913 92.9583 19.2649C95.1093 19.3715 98.1836 19.5 100.5 19.5C102.816 19.5 105.891 19.3715 108.042 19.2649C109.527 19.1913 110.72 18.0283 110.817 16.5442C110.909 15.1223 111 13.3728 111 12C111 10.6272 110.909 8.8777 110.817 7.45583C110.72 5.97175 109.527 4.80867 108.042 4.73508C105.891 4.62852 102.816 4.5 100.5 4.5C98.1836 4.5 95.1093 4.62852 92.9583 4.73508ZM104.25 12L98.25 15V9L104.25 12Z" fill="black"/>
<defs>
<clipPath id="clip0_301_7729">
<rect width="24" height="24" fill="white" transform="translate(0.5)"/>
</clipPath>
<clipPath id="clip1_301_7729">
<rect width="24" height="24" fill="white" transform="translate(44.5)"/>
</clipPath>
</defs>
</svg>
