<svg width="122" height="24" viewBox="0 0 122 24" fill="none" xmlns="http://www.w3.org/2000/svg">
<path d="M8.84156 21C6.41531 21 4.15363 20.2943 2.25 19.0767C3.86624 19.1813 6.71855 18.9308 8.49268 17.2386C5.82381 17.1161 4.6202 15.0692 4.4632 14.1945C4.68997 14.2819 5.77148 14.3869 6.382 14.142C3.31192 13.3722 2.84095 10.678 2.94561 9.85573C3.52125 10.2581 4.49809 10.3981 4.88185 10.3631C2.02109 8.31618 3.05027 5.23707 3.55613 4.57226C5.60912 7.4165 8.6859 9.01393 12.4923 9.10278C12.4205 8.78802 12.3826 8.46032 12.3826 8.12373C12.3826 5.70819 14.3351 3.75 16.7435 3.75C18.0019 3.75 19.1358 4.28457 19.9318 5.13963C20.7727 4.94258 22.0382 4.4813 22.6569 4.0824C22.3451 5.20208 21.3742 6.13612 20.7869 6.48231C20.7821 6.47048 20.7918 6.49408 20.7869 6.48231C21.3028 6.40428 22.6986 6.13603 23.25 5.76192C22.9773 6.39094 21.948 7.4368 21.1033 8.02232C21.2605 14.9535 15.9574 21 8.84156 21Z" fill="#CD4631"/>
<path d="M67.5333 6.8665C67.5333 7.6397 66.9065 8.2665 66.1333 8.2665C65.3601 8.2665 64.7333 7.6397 64.7333 6.8665C64.7333 6.09331 65.3601 5.4665 66.1333 5.4665C66.9065 5.4665 67.5333 6.09331 67.5333 6.8665Z" fill="black"/>
<path fill-rule="evenodd" clip-rule="evenodd" d="M61 16.6665C63.5773 16.6665 65.6666 14.5772 65.6666 11.9998C65.6666 9.42251 63.5773 7.33317 61 7.33317C58.4226 7.33317 56.3333 9.42251 56.3333 11.9998C56.3333 14.5772 58.4226 16.6665 61 16.6665ZM61 14.7998C62.5464 14.7998 63.8 13.5462 63.8 11.9998C63.8 10.4534 62.5464 9.19984 61 9.19984C59.4536 9.19984 58.2 10.4534 58.2 11.9998C58.2 13.5462 59.4536 14.7998 61 14.7998Z" fill="black"/>
<path fill-rule="evenodd" clip-rule="evenodd" d="M51.6666 11.6265C51.6666 8.49021 51.6666 6.92206 52.277 5.72416C52.8139 4.67045 53.6706 3.81376 54.7243 3.27687C55.9222 2.6665 57.4903 2.6665 60.6266 2.6665H61.3733C64.5096 2.6665 66.0777 2.6665 67.2756 3.27687C68.3293 3.81376 69.186 4.67045 69.7229 5.72416C70.3333 6.92206 70.3333 8.49021 70.3333 11.6265V12.3732C70.3333 15.5095 70.3333 17.0776 69.7229 18.2755C69.186 19.3292 68.3293 20.1859 67.2756 20.7228C66.0777 21.3332 64.5096 21.3332 61.3733 21.3332H60.6266C57.4903 21.3332 55.9222 21.3332 54.7243 20.7228C53.6706 20.1859 52.8139 19.3292 52.277 18.2755C51.6666 17.0776 51.6666 15.5095 51.6666 12.3732V11.6265ZM60.6266 4.53317H61.3733C62.9722 4.53317 64.0592 4.53462 64.8994 4.60327C65.7177 4.67013 66.1362 4.79133 66.4282 4.94008C67.1307 5.29801 67.7018 5.86913 68.0597 6.57161C68.2085 6.86355 68.3297 7.28207 68.3965 8.10044C68.4652 8.94061 68.4666 10.0276 68.4666 11.6265V12.3732C68.4666 13.9721 68.4652 15.0591 68.3965 15.8992C68.3297 16.7176 68.2085 17.1361 68.0597 17.4281C67.7018 18.1305 67.1307 18.7017 66.4282 19.0596C66.1362 19.2084 65.7177 19.3295 64.8994 19.3964C64.0592 19.4651 62.9722 19.4665 61.3733 19.4665H60.6266C59.0277 19.4665 57.9407 19.4651 57.1006 19.3964C56.2822 19.3295 55.8637 19.2084 55.5717 19.0596C54.8693 18.7017 54.2981 18.1305 53.9402 17.4281C53.7914 17.1361 53.6703 16.7176 53.6034 15.8992C53.5347 15.0591 53.5333 13.9721 53.5333 12.3732V11.6265C53.5333 10.0276 53.5347 8.94061 53.6034 8.10044C53.6703 7.28207 53.7914 6.86355 53.9402 6.57161C54.2981 5.86913 54.8693 5.29801 55.5717 4.94008C55.8637 4.79133 56.2822 4.67013 57.1006 4.60327C57.9407 4.53462 59.0277 4.53317 60.6266 4.53317Z" fill="black"/>
<path d="M104.338 14.8444C104.455 13.8739 104.853 13.3306 105.603 12.7736C106.676 12.0193 108.017 12.446 108.017 12.446V9.91462C108.343 9.90629 108.669 9.92561 108.991 9.97234V13.23C108.991 13.23 107.651 12.8033 106.578 13.558C105.828 14.1146 105.43 14.6583 105.313 15.6287C105.309 16.1557 105.408 16.8445 105.863 17.4401C105.751 17.3824 105.636 17.3166 105.519 17.2427C104.516 16.5691 104.333 15.5585 104.338 14.8444ZM114.526 5.23411C113.788 4.42517 113.509 3.60842 113.408 3.03467H114.337C114.337 3.03467 114.151 4.53906 115.501 6.01849L115.52 6.03838C115.156 5.8096 114.822 5.53956 114.526 5.23411ZM119 7.52756V10.7197C119 10.7197 117.815 10.6733 116.938 10.4501C115.713 10.1381 114.926 9.65953 114.926 9.65953C114.926 9.65953 114.383 9.31824 114.339 9.29445V15.8862C114.339 16.2532 114.238 17.1698 113.932 17.9343C113.532 18.9343 112.914 19.5908 112.801 19.725C112.801 19.725 112.05 20.6123 110.725 21.2098C109.531 21.7489 108.483 21.7352 108.17 21.7489C108.17 21.7489 106.357 21.8207 104.727 20.7609C104.374 20.5273 104.045 20.2628 103.744 19.9707L103.752 19.9765C105.383 21.0363 107.195 20.9645 107.195 20.9645C107.508 20.9509 108.557 20.9645 109.75 20.4255C111.074 19.8279 111.826 18.9406 111.826 18.9406C111.938 18.8064 112.558 18.15 112.957 17.1495C113.262 16.3854 113.364 15.4684 113.364 15.1014V8.51047C113.408 8.53465 113.951 8.87594 113.951 8.87594C113.951 8.87594 114.738 9.35491 115.963 9.66655C116.84 9.88966 118.025 9.93607 118.025 9.93607V7.43473C118.43 7.52561 118.776 7.55018 119 7.52756Z" fill="black"/>
<path d="M118.025 7.43473V9.93529C118.025 9.93529 116.841 9.88887 115.963 9.66577C114.739 9.35374 113.951 8.87516 113.951 8.87516C113.951 8.87516 113.408 8.53387 113.364 8.50969V15.1022C113.364 15.4692 113.263 16.3862 112.957 17.1503C112.557 18.1507 111.94 18.8072 111.826 18.9414C111.826 18.9414 111.075 19.8287 109.751 20.4262C108.557 20.9653 107.509 20.9516 107.195 20.9653C107.195 20.9653 105.383 21.0371 103.752 19.9773L103.744 19.9715C103.572 19.8047 103.41 19.6286 103.258 19.4441C102.738 18.8095 102.419 18.0591 102.339 17.845C102.339 17.844 102.339 17.8431 102.339 17.8422C102.21 17.4701 101.939 16.5765 101.976 15.711C102.041 14.184 102.578 13.2467 102.72 13.0119C103.097 12.3716 103.586 11.7987 104.166 11.3188C104.679 10.9046 105.259 10.5751 105.885 10.3437C106.56 10.072 107.284 9.92637 108.017 9.91462V12.446C108.017 12.446 106.676 12.0208 105.604 12.7736C104.854 13.3306 104.456 13.8739 104.339 14.8444C104.334 15.5585 104.516 16.5691 105.519 17.2431C105.636 17.3172 105.75 17.383 105.863 17.4405C106.038 17.6681 106.251 17.8664 106.494 18.0275C107.473 18.6473 108.293 18.6906 109.342 18.288C110.042 18.0189 110.569 17.4124 110.813 16.7404C110.966 16.3207 110.964 15.8982 110.964 15.4614V3.03467H113.406C113.507 3.60842 113.786 4.42517 114.524 5.23411C114.82 5.53956 115.154 5.8096 115.518 6.03838C115.625 6.14954 116.174 6.69911 116.88 7.0365C117.244 7.21089 117.629 7.34452 118.025 7.43473Z" fill="black"/>
<path d="M101.367 17.0679V17.0698L101.428 17.234C101.421 17.2149 101.398 17.1568 101.367 17.0679Z" fill="black"/>
<path d="M105.885 10.344C105.259 10.5754 104.679 10.9049 104.166 11.3191C103.586 11.8001 103.097 12.3742 102.721 13.0158C102.579 13.2498 102.042 14.1878 101.976 15.7149C101.939 16.5804 102.21 17.4739 102.339 17.846C102.339 17.847 102.339 17.8479 102.339 17.8488C102.421 18.061 102.738 18.8114 103.259 19.4479C103.41 19.6325 103.572 19.8085 103.744 19.9753C103.193 19.6095 102.701 19.1674 102.284 18.6632C101.768 18.034 101.45 17.2914 101.367 17.0722C101.367 17.0706 101.367 17.0691 101.367 17.0675V17.0648C101.238 16.6931 100.966 15.7991 101.004 14.9324C101.069 13.4054 101.606 12.4681 101.748 12.2333C102.124 11.5917 102.613 11.0176 103.194 10.5367C103.706 10.1223 104.287 9.79279 104.912 9.56155C105.302 9.40646 105.708 9.29203 106.124 9.22027C106.75 9.11549 107.39 9.1064 108.019 9.19336V9.91493C107.286 9.92643 106.561 10.0721 105.885 10.344Z" fill="black"/>
<path d="M113.408 3.03476H110.966V15.4619C110.966 15.8987 110.966 16.32 110.815 16.7408C110.568 17.4125 110.044 18.019 109.345 18.2881C108.295 18.6922 107.475 18.6474 106.496 18.0276C106.253 17.8673 106.039 17.6696 105.863 17.4425C106.697 17.8688 107.444 17.8614 108.368 17.5057C109.067 17.2366 109.592 16.6301 109.838 15.958C109.992 15.5383 109.99 15.1159 109.99 14.6795V2.25H113.362C113.362 2.25 113.324 2.55891 113.408 3.03476ZM118.025 6.74328V7.43483C117.629 7.34447 117.246 7.21085 116.882 7.0366C116.176 6.69921 115.627 6.14964 115.52 6.03848C115.644 6.11693 115.774 6.1883 115.907 6.25222C116.765 6.66255 117.609 6.78502 118.025 6.74328Z" fill="black"/>
</svg>
